<svg width="50" height="50" viewBox="0 0 50 50" fill="none" xmlns="http://www.w3.org/2000/svg">
<g id="Frame 1000010739">
<path id="Arrow 2" d="M13.0358 32.849C12.4012 33.3815 12.3184 34.3276 12.8509 34.9622C13.3834 35.5968 14.3296 35.6796 14.9642 35.1471L13.0358 32.849ZM36.9435 16.1307C37.0157 15.3055 36.4053 14.5779 35.58 14.5057L22.1313 13.3291C21.3061 13.2569 20.5785 13.8674 20.5063 14.6927C20.4341 15.5179 21.0446 16.2455 21.8699 16.3177L33.8242 17.3636L32.7783 29.3179C32.7061 30.1432 33.3166 30.8707 34.1419 30.9429C34.9672 31.0151 35.6947 30.4046 35.7669 29.5794L36.9435 16.1307ZM14.9642 35.1471L36.4134 17.1491L34.4851 14.8509L13.0358 32.849L14.9642 35.1471Z" fill="#1C1C1D"/>
</g>
</svg>
