<svg width="50" height="50" viewBox="0 0 50 50" fill="none" xmlns="http://www.w3.org/2000/svg">
<g id="Group 1000009138">
<circle id="Ellipse 1265" cx="25" cy="25" r="25" fill="#C8F031"/>
<path id="Arrow 2" d="M13.5308 32.2179C12.6847 32.9279 12.5743 34.1894 13.2843 35.0356C13.9943 35.8817 15.2558 35.9921 16.102 35.2821L13.5308 32.2179ZM37.7009 16.3937C37.7972 15.2934 36.9832 14.3233 35.8828 14.227L17.9513 12.6582C16.851 12.562 15.8809 13.3759 15.7846 14.4763C15.6884 15.5767 16.5023 16.5467 17.6027 16.643L33.5418 18.0375L32.1473 33.9766C32.0511 35.077 32.865 36.0471 33.9654 36.1433C35.0658 36.2396 36.0358 35.4256 36.1321 34.3252L37.7009 16.3937ZM16.102 35.2821L36.9941 17.7515L34.423 14.6873L13.5308 32.2179L16.102 35.2821Z" fill="#1C1C1D"/>
</g>
</svg>
