<svg width="30" height="31" viewBox="0 0 30 31" fill="none" xmlns="http://www.w3.org/2000/svg">
<g id="Group">
<path id="Vector" d="M15 30.1025C23.2843 30.1025 30 23.3868 30 15.1025C30 6.81826 23.2843 0.102539 15 0.102539C6.71573 0.102539 0 6.81826 0 15.1025C0 23.3868 6.71573 30.1025 15 30.1025Z" fill="url(#paint0_linear_106_1264)"/>
<g id="Group_2">
<path id="Vector_2" d="M20.2946 8.66895C19.6485 8.66895 19.1182 9.18968 19.1182 9.84542C19.1182 10.5012 19.6389 11.0219 20.2946 11.0219C20.9504 11.0219 21.4711 10.5012 21.4711 9.84542C21.4711 9.18968 20.9504 8.66895 20.2946 8.66895Z" fill="white"/>
<path id="Vector_3" d="M15.0859 10.1768C12.3665 10.1768 10.1582 12.3851 10.1582 15.1044C10.1582 17.8238 12.3665 20.0321 15.0859 20.0321C17.8053 20.0321 20.0136 17.8238 20.0136 15.1044C20.0136 12.3851 17.8053 10.1768 15.0859 10.1768ZM15.0859 18.2578C13.3501 18.2578 11.9326 16.8402 11.9326 15.1044C11.9326 13.3687 13.3501 11.9511 15.0859 11.9511C16.8217 11.9511 18.2392 13.3687 18.2392 15.1044C18.2392 16.8402 16.8217 18.2578 15.0859 18.2578Z" fill="white"/>
<path id="Vector_4" d="M18.9923 25.1025H11.0077C7.69045 25.1025 5 22.4024 5 19.0948V11.1103C5 7.79299 7.69045 5.10254 11.0077 5.10254H18.9923C22.3095 5.10254 25 7.79299 25 11.1103V19.0948C25 22.4121 22.2999 25.1025 18.9923 25.1025ZM11.0077 6.98296C8.73192 6.98296 6.88042 8.83446 6.88042 11.1103V19.0948C6.88042 21.3706 8.73192 23.2221 11.0077 23.2221H18.9923C21.2681 23.2221 23.1196 21.3706 23.1196 19.0948V11.1103C23.1196 8.83446 21.2681 6.98296 18.9923 6.98296H11.0077Z" fill="white"/>
</g>
</g>
<defs>
<linearGradient id="paint0_linear_106_1264" x1="0.949689" y1="3.2399" x2="30.9412" y2="28.5678" gradientUnits="userSpaceOnUse">
<stop stop-color="#FBE18A"/>
<stop offset="0.21" stop-color="#FCBB45"/>
<stop offset="0.38" stop-color="#F75274"/>
<stop offset="0.52" stop-color="#D53692"/>
<stop offset="0.74" stop-color="#8F39CE"/>
<stop offset="1" stop-color="#5B4FE9"/>
</linearGradient>
</defs>
</svg>
