<svg width="172" height="171" viewBox="0 0 172 171" fill="none" xmlns="http://www.w3.org/2000/svg">
<g id="Group 5">
<path id="Ellipse 5" d="M170.55 85.5C170.55 132.444 132.483 170.5 85.5252 170.5C38.5669 170.5 0.5 132.444 0.5 85.5C0.5 38.5559 38.5669 0.5 85.5252 0.5C132.483 0.5 170.55 38.5559 170.55 85.5Z" fill="#12141D" stroke="white"/>
<path id="Ellipse 6" d="M168.05 85.5C168.05 131.063 131.103 168 85.5252 168C39.947 168 3 131.063 3 85.5C3 39.9373 39.947 3 85.5252 3C131.103 3 168.05 39.9373 168.05 85.5Z" fill="#12141D" stroke="white" stroke-width="6"/>
<path id="Polygon 1" d="M105.68 81.6283C108.68 83.3604 108.68 87.6905 105.68 89.4225L78.8174 104.932C75.8174 106.664 72.0674 104.498 72.0674 101.034L72.0674 70.0164C72.0674 66.5523 75.8174 64.3873 78.8174 66.1193L105.68 81.6283Z" fill="white" stroke="white"/>
</g>
</svg>
