<svg width="30" height="31" viewBox="0 0 30 31" fill="none" xmlns="http://www.w3.org/2000/svg">
<g id="Group">
<path id="Vector" d="M15 30.1025C23.2843 30.1025 30 23.3868 30 15.1025C30 6.81826 23.2843 0.102539 15 0.102539C6.71573 0.102539 0 6.81826 0 15.1025C0 23.3868 6.71573 30.1025 15 30.1025Z" fill="#33CCFF"/>
<path id="Vector_2" d="M24.917 9.14367C24.2843 9.44359 23.5789 9.62567 22.8943 9.7435C23.2158 9.68994 23.693 9.0794 23.8901 8.83305C24.1805 8.45816 24.4295 8.02971 24.5643 7.56913C24.5851 7.53699 24.5954 7.48344 24.5643 7.46201C24.5228 7.44059 24.4917 7.46201 24.4606 7.46201C23.693 7.89046 22.9046 8.19038 22.0644 8.41531C21.9918 8.43673 21.9399 8.41531 21.8985 8.37247C21.8258 8.28678 21.7636 8.2118 21.691 8.14753C21.3383 7.83691 20.9545 7.59055 20.5292 7.40846C19.9691 7.17281 19.3571 7.07641 18.745 7.10854C18.1538 7.15139 17.5729 7.32277 17.0542 7.60126C16.5252 7.87975 16.0584 8.27606 15.685 8.74736C15.3012 9.24007 15.0107 9.81848 14.8655 10.429C14.7203 11.0181 14.741 11.6072 14.824 12.2071C14.8344 12.3035 14.824 12.3249 14.741 12.3035C11.4424 11.8 8.71429 10.579 6.49446 7.96544C6.4011 7.84762 6.34923 7.84762 6.26625 7.96544C5.29118 9.46501 5.76834 11.8857 6.98199 13.064C7.14796 13.2246 7.31393 13.3853 7.49027 13.5245C7.42803 13.5353 6.61894 13.4496 5.90319 13.064C5.80984 12.9997 5.75797 13.0318 5.7476 13.1497C5.7476 13.3103 5.7476 13.4603 5.77872 13.6424C5.96543 15.1634 6.98199 16.5772 8.38236 17.1235C8.54832 17.1985 8.73504 17.2628 8.91138 17.2949C8.58982 17.3699 8.26825 17.4234 7.35542 17.3484C7.24132 17.327 7.19983 17.3806 7.24132 17.4984C7.92594 19.4264 9.40929 20.0048 10.5192 20.3369C10.6644 20.3583 10.82 20.3583 10.9652 20.4011C10.9652 20.4119 10.9445 20.4119 10.9341 20.4333C10.5711 21.0117 9.28481 21.4401 8.69355 21.6544C7.61475 22.04 6.43222 22.222 5.29118 22.1042C5.10447 22.0721 5.07335 22.0828 5.02148 22.1042C4.96962 22.1364 5.02148 22.1792 5.07335 22.2328C5.30156 22.3934 5.54014 22.5327 5.77872 22.6612C6.50483 23.0575 7.26206 23.3788 8.05042 23.6038C12.1374 24.7713 16.743 23.9144 19.8031 20.7653C22.2096 18.291 23.0602 14.8849 23.0602 11.468C23.0602 11.3395 23.2158 11.2645 23.2988 11.1895C23.9212 10.7075 24.4295 10.1184 24.8963 9.47572C25 9.32576 25 9.19723 25 9.14367V9.12225C25 9.06869 25 9.0794 24.917 9.12225V9.14367Z" fill="white"/>
</g>
</svg>
