<svg width="30" height="31" viewBox="0 0 30 31" fill="none" xmlns="http://www.w3.org/2000/svg">
<g id="Group 1000009006">
<circle id="Ellipse 1259" cx="15" cy="15.1025" r="15" fill="#FF0000"/>
<path id="Vector" d="M13.059 19.2549C13.0737 19.2047 13.0884 19.1474 13.1104 19.0901C13.2351 19.2406 13.3379 19.391 13.4699 19.52C15.1502 21.1898 18.7895 21.0106 21.0347 18.2874C22.9864 15.9226 23.1405 12.5688 22.9277 11.2144C22.4581 8.23321 19.9708 5.6032 16.0306 5.16606C12.7362 4.80058 9.11891 6.0045 7.18186 8.97849C5.42824 11.6658 5.80978 14.8333 7.1305 16.4386C7.51937 16.9115 7.9963 17.2698 8.57594 17.492C8.86944 17.6067 9.11157 17.5063 9.19228 17.2197C9.30234 16.8399 9.39038 16.4529 9.49311 16.0731C9.55914 15.8294 9.40506 15.6789 9.20695 15.4353C7.64411 13.5219 8.4292 9.33681 11.8924 7.77457C14.908 6.41299 19.6626 7.3231 19.9194 11.5583C20.0515 13.6796 19.3618 16.675 17.6008 17.9291C15.6858 19.2836 13.4479 17.965 13.9322 16.1089C14.5118 13.8587 15.2676 12.3395 14.9814 11.1714C14.5192 9.28664 11.8704 9.4658 11.1367 11.7447C10.7991 12.7981 10.8725 13.8444 11.2614 14.8691C11.2981 14.9623 11.3201 15.0483 11.2981 15.1486C9.6692 21.8347 9.51512 22.2575 9.4711 23.4901C9.4691 23.5388 9.46765 23.5875 9.46668 23.6362C9.45545 24.2028 9.81254 24.7091 10.3447 24.9039C10.6915 25.0309 11.0843 24.894 11.2732 24.5767C11.2966 24.5374 11.3196 24.4977 11.3421 24.4576C12.1712 23.0243 12.2593 22.3364 13.0664 19.2549H13.059Z" fill="white"/>
</g>
</svg>
