<svg width="90" height="85" viewBox="0 0 90 85" fill="none" xmlns="http://www.w3.org/2000/svg">
<path id="Vector" fill-rule="evenodd" clip-rule="evenodd" d="M71.9829 33.703C73.4366 33.4559 74.8738 33.2698 76.3112 33.1496C78.4672 32.9684 80.6398 33.0804 82.7959 33.0162C83.7106 32.9882 86.0953 32.8778 86.4383 32.9223C89.4274 33.3258 89.8848 35.7584 89.9664 36.4699C90.0154 36.8141 90.4073 40.3485 86.5198 41.1111C81.7667 42.0466 76.9809 42.3464 72.2931 42.0153C68.3077 42.7878 64.3386 44.1087 60.7452 45.8528C46.4531 52.7933 45.0647 66.0186 45.1954 80.3474C45.228 82.5511 43.513 84.3809 41.3406 84.4962C39.1519 84.6115 37.2572 82.9711 37.0612 80.7773C36.2935 72.768 29.9232 58.5577 23.2917 53.6447C21.9033 52.617 18.5548 52.0191 15.2717 51.2286C10.7146 50.1251 6.20649 48.8125 4.31177 47.3417C4.01776 47.121 1.01227 44.438 0.571257 43.6376C-0.474108 41.7139 0.130354 40.174 0.685705 39.2994C1.24106 38.4249 2.33542 37.435 4.14847 37.0398C6.04319 36.6264 9.93072 36.9755 10.7637 36.9113C13.7855 36.6774 19.7146 36.0681 24.8108 34.8246C27.5549 34.1543 30.0866 33.4394 31.3443 32.2569C35.9995 27.8792 35.3134 20.8795 34.5457 14.9849C34.464 14.308 34.366 13.6311 34.2843 12.9558C33.5819 10.5561 33.0593 8.00819 32.749 5.31535C32.2753 1.24893 35.9831 0.580297 36.2281 0.544063C36.7671 0.468302 39.5438 0.186637 40.6545 3.25169C40.7689 3.58603 41.3079 6.05325 41.5203 7.00356C41.8143 8.32774 42.0429 9.66672 42.2552 11.0107C46.5347 24.8932 58.5565 32.4331 71.9829 33.703ZM57.1353 38.4677C46.3876 43.7084 41.1936 51.6617 38.8415 61.0891L38.8415 61.0875C35.7871 55.2012 31.9649 49.8467 28.1264 47.009C26.6727 45.9318 23.749 44.9437 20.4659 44.0526C23.5204 43.5701 26.7709 42.9179 29.5476 42.0565C32.7164 41.0766 35.346 39.7573 36.914 38.2849C39.9358 35.4421 41.6182 31.8747 42.4512 28.0389C46.4857 32.6307 51.5165 36.1125 57.1353 38.4677Z" fill="#B1A4F9"/>
</svg>
